<?xml version="1.0" encoding="utf-8"?>
<!-- Generator: Adobe Illustrator 17.0.0, SVG Export Plug-In . SVG Version: 6.00 Build 0)  -->
<!DOCTYPE svg PUBLIC "-//W3C//DTD SVG 1.1//EN" "http://www.w3.org/Graphics/SVG/1.1/DTD/svg11.dtd">
<svg version="1.1" id="_x3C_Layer_x3E_" xmlns="http://www.w3.org/2000/svg" xmlns:xlink="http://www.w3.org/1999/xlink" x="0px"
	 y="0px" width="57px" height="57px" viewBox="0 0 57 57" enable-background="new 0 0 57 57" xml:space="preserve">
<g>
	<path fill="#FFFFFF" d="M7.5,28.5c0-13.897,10.501-25.337,24-26.83c-0.985-0.109-1.985-0.17-3-0.17c-14.912,0-27,12.088-27,27
		s12.088,27,27,27c1.015,0,2.015-0.061,3-0.17C18.001,53.837,7.5,42.397,7.5,28.5z"/>
	<path fill="#FFD81A" d="M55.5,28.5c0-13.897-10.501-25.337-24-26.83c-13.499,1.493-24,12.933-24,26.83
		c0,13.897,10.501,25.337,24,26.83C44.999,53.837,55.5,42.397,55.5,28.5z"/>
</g>
<circle fill="none" stroke="#212121" stroke-width="3" stroke-miterlimit="10" cx="28.5" cy="28.5" r="27"/>
<g>
	<path fill="#212121" d="M33.543,35.949c0-1.11-0.392-1.962-1.175-2.557c-0.783-0.594-2.193-1.221-4.23-1.88
		s-3.649-1.309-4.838-1.948c-3.238-1.75-4.857-4.106-4.857-7.071c0-1.54,0.435-2.914,1.303-4.122s2.115-2.151,3.741-2.83
		c1.625-0.679,3.45-1.019,5.474-1.019c2.037,0,3.852,0.369,5.445,1.106c1.593,0.737,2.83,1.779,3.711,3.124
		c0.882,1.345,1.322,2.872,1.322,4.583h-5.876c0-1.306-0.411-2.321-1.233-3.046s-1.979-1.087-3.467-1.087
		c-1.437,0-2.553,0.304-3.35,0.911c-0.796,0.606-1.194,1.406-1.194,2.398c0,0.928,0.467,1.704,1.4,2.331s2.308,1.215,4.123,1.763
		c3.342,1.006,5.777,2.253,7.306,3.741c1.527,1.488,2.291,3.343,2.291,5.563c0,2.468-0.934,4.403-2.801,5.807
		c-1.867,1.404-4.381,2.105-7.54,2.105c-2.194,0-4.191-0.401-5.993-1.204c-1.802-0.804-3.177-1.903-4.123-3.301
		c-0.947-1.396-1.42-3.016-1.42-4.857h5.896c0,3.147,1.88,4.721,5.641,4.721c1.396,0,2.487-0.284,3.271-0.853
		C33.151,37.761,33.543,36.968,33.543,35.949z"/>
</g>
</svg>
