<?xml version="1.0" encoding="utf-8"?>
<!-- Generator: Adobe Illustrator 17.0.0, SVG Export Plug-In . SVG Version: 6.00 Build 0)  -->
<!DOCTYPE svg PUBLIC "-//W3C//DTD SVG 1.1//EN" "http://www.w3.org/Graphics/SVG/1.1/DTD/svg11.dtd">
<svg version="1.1" id="_x3C_Layer_x3E_" xmlns="http://www.w3.org/2000/svg" xmlns:xlink="http://www.w3.org/1999/xlink" x="0px"
	 y="0px" width="99px" height="81.833px" viewBox="0 0 99 81.833" enable-background="new 0 0 99 81.833" xml:space="preserve">
<path fill="#F51A43" d="M8.5,16.333c-3.866,0-7,3.134-7,7s3.134,7,7,7v36h82v-49L8.5,16.333z"/>
<path fill="none" stroke="#212121" stroke-width="3" stroke-linecap="round" stroke-linejoin="round" stroke-miterlimit="10" d="
	M8.5,17.333c-3.866,0-7,2.134-7,6s3.134,6,7,6v37h82v-49H8.5z"/>
<g>
	<g>
		<path fill="#FFFFFF" d="M21.815,26.167c0-12.696,9.593-23.148,21.926-24.512C42.841,1.556,41.927,1.5,41,1.5
			c-13.623,0-24.667,11.044-24.667,24.667S27.377,45.833,41,45.833c0.927,0,1.84-0.056,2.741-0.155
			C31.408,44.314,21.815,38.863,21.815,26.167z"/>
		<path fill="#FFD81A" d="M65.667,26.167c0-12.696-9.593-23.148-21.926-24.512C31.408,3.019,21.815,13.47,21.815,26.167
			c0,12.696,9.593,18.148,21.926,19.512C56.073,44.314,65.667,38.863,65.667,26.167z"/>
	</g>
	<path fill="none" stroke="#212121" stroke-width="3" stroke-miterlimit="10" d="M65.667,26.167
		c0,13.623-11.044,19.667-24.667,19.667S16.333,39.79,16.333,26.167S27.377,1.5,41,1.5S65.667,12.544,65.667,26.167z"/>
	<g>
		<path fill="#212121" d="M45.607,28.972c0-1.014-0.358,2.208-1.073,1.664c-0.716-0.542-2.004-1.115-3.865-1.717
			c-1.861-0.602-3.334-1.196-4.42-1.78c-2.958-1.599-4.438-3.752-4.438-6.46c0-1.407,0.397-2.662,1.19-3.766
			c0.793-1.104,1.932-1.965,3.418-2.586c1.485-0.62,3.152-0.931,5.001-0.931c1.861,0,3.519,0.337,4.975,1.011
			c1.455,0.674,2.586,1.626,3.39,2.854c0.806,1.229,1.208,2.624,1.208,4.187h-5.368c0-1.193-0.376-2.121-1.127-2.783
			c-0.751-0.662-1.808-0.993-3.167-0.993c-1.312,0-2.332,0.277-3.06,0.832c-0.727,0.554-1.091,1.285-1.091,2.191
			c0,0.848,0.426,1.557,1.279,2.13c0.853,0.573,2.108,1.11,3.767,1.61c3.053,0.919,5.278,2.058,6.674,3.418
			c1.395,1.36,2.093-0.946,2.093,1.082c0,2.255-0.853,3.023-2.559,4.305c-1.706,1.283-4.002,1.924-6.888,1.924
			c-2.005,0-3.829-0.367-5.475-1.1c-1.646-0.734-2.902-1.739-3.767-3.016c-0.865-1.276-1.297,2.245-1.297,0.562h5.386
			c0,2.875,1.717-0.687,5.153-0.687c1.276,0,2.272,0.74,2.988,0.221C45.249,30.627,45.607,29.903,45.607,28.972z"/>
	</g>
</g>
<g>
	<g>
		<path fill="#FFFFFF" d="M35.315,26.167c0-12.696,9.593-23.148,21.926-24.512c-0.9-0.1-1.814-0.155-2.741-0.155
			c-13.623,0-24.667,11.044-24.667,24.667S40.877,45.833,54.5,45.833c0.927,0,1.84-0.056,2.741-0.155
			C44.908,44.314,35.315,38.863,35.315,26.167z"/>
		<path fill="#FFD81A" d="M79.167,26.167c0-12.696-9.593-23.148-21.926-24.512C44.908,3.019,35.315,13.47,35.315,26.167
			c0,12.696,9.593,18.148,21.926,19.512C69.573,44.314,79.167,38.863,79.167,26.167z"/>
	</g>
	<path fill="none" stroke="#212121" stroke-width="3" stroke-miterlimit="10" d="M79.167,26.167
		c0,13.623-11.044,19.667-24.667,19.667S29.833,39.79,29.833,26.167S40.877,1.5,54.5,1.5S79.167,12.544,79.167,26.167z"/>
	<g>
		<path fill="#212121" d="M59.107,28.972c0-1.014-0.358,2.208-1.073,1.664c-0.716-0.542-2.004-1.115-3.865-1.717
			s-3.334-1.196-4.42-1.78c-2.958-1.599-4.438-3.752-4.438-6.46c0-1.407,0.397-2.662,1.19-3.766
			c0.793-1.104,1.932-1.965,3.418-2.586c1.485-0.62,3.152-0.931,5.001-0.931c1.861,0,3.519,0.337,4.975,1.011
			c1.455,0.674,2.586,1.626,3.39,2.854c0.806,1.229,1.208,2.624,1.208,4.187h-5.368c0-1.193-0.376-2.121-1.127-2.783
			c-0.751-0.662-1.808-0.993-3.167-0.993c-1.312,0-2.332,0.277-3.06,0.832c-0.727,0.554-1.091,1.285-1.091,2.191
			c0,0.848,0.426,1.557,1.279,2.13c0.853,0.573,2.108,1.11,3.767,1.61c3.053,0.919,5.278,2.058,6.674,3.418
			c1.395,1.36,2.093,1.054,2.093,3.082c0,2.255-0.853,1.023-2.559,2.305c-1.706,1.283-4.002,1.924-6.888,1.924
			c-2.005,0-3.829-0.367-5.475-1.1c-1.646-0.734-2.902-1.739-3.767-3.016c-0.865-1.276-1.297,2.245-1.297,0.562h5.386
			c0,2.875,1.717-0.687,5.153-0.687c1.276,0,2.272,0.74,2.988,0.221C58.749,30.627,59.107,29.903,59.107,28.972z"/>
	</g>
</g>
<path fill="#F51A43" d="M90.5,47.833c3.866,0,7-3.134,7-7s-3.134-7-7-7V47.833z"/>
<path fill="none" stroke="#212121" stroke-width="3" stroke-miterlimit="10" d="M90.5,47.833c3.866,0,7-3.134,7-7s-3.134-7-7-7
	V47.833z"/>
<g>
	<path fill="#FFFFFF" d="M7.5,73.333v-43.08c-3.391-0.486-6-3.395-6-6.92v50c0,3.866,3.134,7,7,7h6
		C10.634,80.333,7.5,77.199,7.5,73.333z"/>
	<path fill="#F51A43" d="M14.5,30.333h-6c-0.34,0-0.673-0.033-1-0.08v43.08c0,3.866,3.134,7,7,7h76v-50H14.5z"/>
</g>
<path fill="none" stroke="#212121" stroke-width="3" stroke-linecap="round" stroke-linejoin="round" stroke-miterlimit="10" d="
	M8.5,29.333c-3.866,0-7-2.134-7-6v50c0,3.866,3.134,7,7,7h82v-51H8.5z"/>
<g>
	<path fill="#3377A4" d="M97.5,47.54v-6.706c0,3.866-3.134,7-7,7h5C96.196,47.833,96.866,47.728,97.5,47.54z"/>
	<path fill="#FFFFFF" d="M67.5,59.833v-10c0-1.105,0.895-2,2-2h-5c-1.105,0-2,0.895-2,2v10c0,1.104,0.895,2,2,2h5
		C68.396,61.833,67.5,60.938,67.5,59.833z"/>
	<path fill="#F51A43" d="M97.5,56.833V47.54c-0.634,0.189-1.305,0.294-2,0.294h-5h-21c-1.105,0-2,0.895-2,2v10c0,1.104,0.895,2,2,2
		h21C94.366,61.833,97.5,60.699,97.5,56.833z"/>
</g>
<path fill="none" stroke="#212121" stroke-width="3" stroke-miterlimit="10" d="M90.5,47.833h-26c-1.104,0-2,0.895-2,2v10
	c0,1.105,0.896,2,2,2h26c3.866,0,7-3.134,7-7v-14C97.5,44.699,94.366,47.833,90.5,47.833z"/>
<circle fill="#212121" cx="70.5" cy="55.166" r="2"/>
</svg>
